# xmcd CD database file
#
# Track frame offsets:
#	150
#	26415
#	76374
#	110282
#	181964
#	203946
#
# Disc length: 3664 seconds
#
# Revision: 0
# Processed by: cddbd v1.5.2PL0 Copyright (c) Steve Scherf et al.
# Submitted via: CDex 1.70beta2
#
DISCID=430e4e06
DTITLE=Tom Kenyon - Ascension Codes
DYEAR=2010
DGENRE=New Age
TTITLE0=Dimensional Pineal Attunement
TTITLE1=El Ka Leem Om (Chant of the Elements)
TTITLE2=The Mending Heart Song
TTITLE3=Manna
TTITLE4=Dimensional Heart Attunement
TTITLE5=Worlds Ascending
EXTD=YEAR: 2010
EXTT0=
EXTT1=
EXTT2=
EXTT3=
EXTT4=
EXTT5=
PLAYORDER=
